<svg width="528" height="232" viewBox="0 0 528 232" fill="none" xmlns="http://www.w3.org/2000/svg">
    <g clip-path="url(#clip0_16_458)">
        <path d="M221.439 245.052C186.488 245.052 158.153 216.691 158.153 181.705H221.439V245.052Z" fill="#8950FC"/>
        <path d="M348.011 181.705C348.011 216.691 319.677 245.052 284.725 245.052V181.705H348.011Z" fill="#663259"/>
        <path d="M284.725 245.052C249.773 245.052 221.439 216.691 221.439 181.705H284.725V245.052Z" fill="#6ED47C"/>
        <path d="M284.725 214.034C266.888 214.034 252.427 199.56 252.427 181.705H284.725V214.034Z" fill="#D5E155"/>
        <path d="M222.056 181.651H257.092C276.441 181.651 292.127 166.181 292.127 147.098H257.092C237.742 147.098 222.056 162.568 222.056 181.651Z" fill="#FFC700"/>
        <path d="M411.449 87.8638H380.074C362.571 87.8638 348.381 102.044 348.381 119.537H379.755C397.26 119.537 411.449 105.357 411.449 87.8638Z" fill="#8950FC"/>
        <path d="M157.906 181.651H106.587C78.2439 181.651 55.2671 204.635 55.2671 232.987H106.587C134.93 232.987 157.906 210.003 157.906 181.651Z" fill="#663259"/>
        <path d="M118.335 201.396H86.9604C69.4568 201.396 55.2671 215.576 55.2671 233.069H86.6415C104.146 233.069 118.335 218.889 118.335 201.396Z" fill="#6ED47C"/>
        <path d="M284.725 118.358H348.011C382.963 118.358 411.297 146.72 411.297 181.705H348.011C313.059 181.705 284.725 153.343 284.725 118.358Z" fill="#F64E60"/>
        <path d="M348.011 150.031H379.494C397.058 150.031 411.297 164.213 411.297 181.705H379.815C362.249 181.705 348.011 167.524 348.011 150.031Z" fill="#6ED47C"/>
        <path d="M411.297 245.053V181.705C411.297 146.72 439.632 118.358 474.583 118.358V181.705C474.583 216.691 446.249 245.053 411.297 245.053Z" fill="#6ED47C"/>
        <path d="M442.94 181.487V150.081C442.94 132.561 457.108 118.358 474.583 118.358V149.763C474.583 167.284 460.416 181.487 442.94 181.487Z" fill="#8950FC"/>
        <path d="M392.792 128.587C392.792 118.091 401.293 109.583 411.779 109.583C422.264 109.583 430.764 118.091 430.764 128.587C430.764 139.084 422.264 147.591 411.779 147.591C401.293 147.591 392.792 139.084 392.792 128.587Z" fill="#FF743C"/>
        <path d="M402.394 127.71C402.394 122.461 406.645 118.207 411.887 118.207C417.13 118.207 421.38 122.461 421.38 127.71C421.38 132.957 417.13 137.212 411.887 137.212C406.645 137.212 402.394 132.957 402.394 127.71Z" fill="#FFC700"/>
        <path d="M165.049 224.719C165.049 229.967 160.799 234.221 155.557 234.221C150.313 234.221 146.063 229.967 146.063 224.719C146.063 219.471 150.313 215.217 155.557 215.217C160.799 215.217 165.049 219.471 165.049 224.719Z" fill="#6ED47C"/>
        <path d="M474.83 86.9588C474.83 69.466 460.663 55.2851 443.186 55.2851C425.711 55.2851 411.544 69.466 411.544 86.9588C411.544 104.451 425.711 118.633 443.186 118.633H474.83V86.9588Z" fill="#6ED47C"/>
        <path d="M474.872 102.273C474.872 93.2242 467.544 85.8894 458.505 85.8894C449.466 85.8894 442.138 93.2242 442.138 102.273C442.138 111.321 449.466 118.656 458.505 118.656H474.872V102.273Z" fill="#F64E60"/>
        <path d="M348.011 213.379C348.011 195.886 362.178 181.705 379.655 181.705C397.13 181.705 411.297 195.886 411.297 213.379C411.297 230.872 397.13 245.052 379.655 245.052C362.178 245.052 348.011 230.872 348.011 213.379Z" fill="#FFC700"/>
        <path d="M362.196 213.051C362.196 203.34 370.061 195.467 379.763 195.467C389.466 195.467 397.331 203.34 397.331 213.051C397.331 222.762 389.466 230.636 379.763 230.636C370.061 230.636 362.196 222.762 362.196 213.051Z" fill="#8950FC"/>
        <path d="M537.651 118.139C502.7 118.139 474.365 89.7771 474.365 54.7915H537.651V118.139Z" fill="#663259"/>
        <path d="M474.365 54.7914C474.365 19.8052 502.7 -8.55612 537.651 -8.55612V54.7914H474.365Z" fill="#F64E60"/>
        <path d="M505.353 54.7913C505.353 36.9362 519.813 22.4622 537.651 22.4622V54.7913H505.353Z" fill="#D5E155"/>
        <path d="M474.583 213.478C474.583 230.969 488.75 245.151 506.226 245.151C523.702 245.151 537.869 230.969 537.869 213.478C537.869 195.985 523.702 181.803 506.226 181.803H474.583V213.478Z" fill="#FFC700"/>
        <path d="M474.583 198.186C474.583 207.234 481.911 214.569 490.95 214.569C499.989 214.569 507.317 207.234 507.317 198.186C507.317 189.138 499.989 181.803 490.95 181.803H474.583V198.186Z" fill="#FF743C"/>
        <path d="M506.008 118.139C523.484 118.139 537.651 132.32 537.651 149.813C537.651 167.306 523.484 181.486 506.008 181.486C488.532 181.486 474.365 167.306 474.365 149.813C474.365 132.32 488.532 118.139 506.008 118.139Z" fill="#FF743C"/>
        <path d="M506.335 132.338C516.037 132.338 523.902 140.211 523.902 149.922C523.902 159.633 516.037 167.506 506.335 167.506C496.633 167.506 488.768 159.633 488.768 149.922C488.768 140.211 496.633 132.338 506.335 132.338Z" fill="#2D3652"/>
        <path d="M57.1464 217.191H25.7719C8.26835 217.191 -5.92139 231.372 -5.92139 248.865H25.4531C42.9573 248.865 57.1464 234.684 57.1464 217.191Z" fill="#F64E60"/>
    </g>
    <defs>
        <clipPath id="clip0_16_458">
            <rect width="528" height="232" rx="4" fill="white"/>
        </clipPath>
    </defs>
</svg>
