<svg width="89" height="87" viewBox="0 0 89 87" fill="none" xmlns="http://www.w3.org/2000/svg">
    <path d="M47.4192 74.2681C62.7032 74.2681 75.0933 61.878 75.0933 46.5941C75.0933 31.3101 62.7032 18.92 47.4192 18.92C32.1352 18.92 19.7451 31.3101 19.7451 46.5941C19.7451 61.878 32.1352 74.2681 47.4192 74.2681Z" fill="#2F2E41"/>
    <path d="M43.2154 68.313H34.8081V83.3761H43.2154V68.313Z" fill="#2F2E41"/>
    <path d="M60.0304 68.313H51.623V83.3761H60.0304V68.313Z" fill="#2F2E41"/>
    <path d="M41.8142 86.1785C45.6836 86.1785 48.8203 85.0022 48.8203 83.5512C48.8203 82.1002 45.6836 80.9239 41.8142 80.9239C37.9448 80.9239 34.8081 82.1002 34.8081 83.5512C34.8081 85.0022 37.9448 86.1785 41.8142 86.1785Z" fill="#2F2E41"/>
    <path d="M58.6292 85.8282C62.4985 85.8282 65.6353 84.6519 65.6353 83.2009C65.6353 81.7499 62.4985 80.5736 58.6292 80.5736C54.7598 80.5736 51.623 81.7499 51.623 83.2009C51.623 84.6519 54.7598 85.8282 58.6292 85.8282Z" fill="#2F2E41"/>
    <path d="M77.2408 34.501C83.2341 28.5031 86.5663 22.1156 84.6833 20.2341C82.8004 18.3526 76.4155 21.6897 70.4222 27.6876C64.4289 33.6855 61.0967 40.073 62.9797 41.9545C64.8626 43.836 71.2475 40.4989 77.2408 34.501Z" fill="#2F2E41"/>
    <path d="M25.113 43.8823C26.996 42.0008 23.6638 35.6133 17.6705 29.6154C11.6772 23.6175 5.29227 20.2804 3.40934 22.1619C1.52642 24.0434 4.85854 30.4309 10.8518 36.4288C16.8451 42.4267 23.2301 45.7638 25.113 43.8823Z" fill="#2F2E41"/>
    <path d="M46.2551 52.1305C51.4787 52.1305 55.7133 47.8959 55.7133 42.6723C55.7133 37.4487 51.4787 33.2141 46.2551 33.2141C41.0315 33.2141 36.7969 37.4487 36.7969 42.6723C36.7969 47.8959 41.0315 52.1305 46.2551 52.1305Z" fill="white"/>
    <path d="M46.2548 45.825C47.996 45.825 49.4076 44.4135 49.4076 42.6723C49.4076 40.9311 47.996 39.5195 46.2548 39.5195C44.5136 39.5195 43.1021 40.9311 43.1021 42.6723C43.1021 44.4135 44.5136 45.825 46.2548 45.825Z" fill="#3F3D56"/>
    <path d="M53.763 60.1649C54.0551 61.7698 53.6978 63.4251 52.7695 64.7666C51.8412 66.1081 50.418 67.0259 48.813 67.3181C47.2081 67.6102 45.5528 67.2529 44.2113 66.3246C42.8698 65.3963 41.952 63.9731 41.6598 62.3681L41.6576 62.3563C41.0525 59.0135 43.637 57.8306 46.9798 57.2254C50.3226 56.6203 53.1578 56.8221 53.763 60.1649Z" fill="white"/>
    <path d="M46.7067 28.4423C41.7896 28.4373 36.9013 27.6905 32.207 26.2271C31.8808 26.1219 31.5963 25.9162 31.3941 25.6395C31.1918 25.3628 31.0823 25.0293 31.0811 24.6866V13.422C31.0816 12.9961 31.251 12.5878 31.5521 12.2867C31.8533 11.9855 32.2616 11.8161 32.6875 11.8156H60.9609C61.3868 11.8161 61.7951 11.9855 62.0963 12.2867C62.3974 12.5878 62.5668 12.9961 62.5673 13.422V24.68C62.5675 25.0256 62.4565 25.3621 62.2506 25.6398C62.0448 25.9174 61.7551 26.1215 61.4243 26.2218C56.6538 27.6794 51.6949 28.4275 46.7067 28.4423Z" fill="#6C63FF"/>
    <path opacity="0.2" d="M62.246 13.422V15.3048L46.9462 20.6703C46.6603 20.769 46.3488 20.7644 46.0658 20.6575L31.4023 15.1506V13.422C31.4033 13.0815 31.539 12.7552 31.7798 12.5144C32.0206 12.2736 32.347 12.1379 32.6875 12.1369H60.9609C61.3014 12.1379 61.6277 12.2736 61.8685 12.5144C62.1093 12.7552 62.2451 13.0815 62.246 13.422Z" fill="black"/>
    <path d="M46.5179 18.493C46.3251 18.4931 46.1339 18.4586 45.9533 18.391L24.0407 10.163C23.7309 10.0467 23.4646 9.83747 23.2781 9.56402C23.0917 9.29057 22.9943 8.96623 22.9992 8.63531C23.0041 8.3044 23.1111 7.98308 23.3055 7.71526C23.4999 7.44744 23.7723 7.24619 24.0854 7.13904L44.7028 0.0857521C45.0359 -0.0270622 45.3966 -0.0286021 45.7307 0.0813595L68.7414 7.75181C69.0593 7.85776 69.336 8.06044 69.533 8.3315C69.73 8.60256 69.8372 8.92841 69.8398 9.26346C69.8424 9.59851 69.7401 9.92597 69.5474 10.2C69.3546 10.4741 69.081 10.681 68.7648 10.7918L47.0491 18.403C46.8784 18.4627 46.6988 18.4932 46.5179 18.493Z" fill="#6C63FF"/>
    <path d="M26.583 17.9201H25.9404V8.60271H45.539V9.24528H26.583V17.9201Z" fill="#3F3D56"/>
    <path d="M26.2617 19.8478C26.9715 19.8478 27.5469 19.2724 27.5469 18.5627C27.5469 17.8529 26.9715 17.2775 26.2617 17.2775C25.5519 17.2775 24.9766 17.8529 24.9766 18.5627C24.9766 19.2724 25.5519 19.8478 26.2617 19.8478Z" fill="#3F3D56"/>
</svg>